# xmcd CD database file
#
# Track frame offsets:
#	150
#	17977
#	37040
#	57918
#	80614
#	101596
#	137381
#	167408
#	192978
#	214202
#	240260
#	279225
#	301435
#	322783
#
# Disc length: 4477 seconds
#
# Revision: 0
# Processed by: cddbd v1.5.2PL0 Copyright (c) Steve Scherf et al.
# Submitted via: CDex 1.51
#
DISCID=b4117b0e
DTITLE=Gilberto Santa Rosa - Intenso
DYEAR=1999
DGENRE=Salsa
TTITLE0=Detente Corazon
TTITLE1=Soy (alguna parte de ti)
TTITLE2=Yo la agarro bajando
TTITLE3=Es mentira
TTITLE4=Asechando
TTITLE5=Tu retrato
TTITLE6=Si me muero manana
TTITLE7=Se puede
TTITLE8=Si no lo digo ahora - Reviento
TTITLE9=Bailalo como quiera
TTITLE10=Almas gemelas
TTITLE11=No quiero nada regalado
TTITLE12=mal herido
TTITLE13=me volvieron hablar de ella
EXTD=YEAR: 1999
EXTT0=
EXTT1=
EXTT2=
EXTT3=
EXTT4=
EXTT5=
EXTT6=
EXTT7=
EXTT8=
EXTT9=
EXTT10=
EXTT11=
EXTT12=
EXTT13=
PLAYORDER=
